<svg id="图层_1" data-name="图层 1" xmlns="http://www.w3.org/2000/svg" xmlns:xlink="http://www.w3.org/1999/xlink" viewBox="0 0 1360.63 268.66"><defs><style>.cls-1{fill:none;}.cls-2{clip-path:url(#clip-path);}.cls-3{fill:#333;}.cls-4{fill:#05a;}.cls-5{fill:#007fff;}</style><clipPath id="clip-path" transform="translate(0 0)"><rect class="cls-1" width="1360.63" height="268.66"/></clipPath></defs><title>有度logo</title><g class="cls-2"><path class="cls-3" d="M1350.6,157.38V80.71H1313c12-5,21.67-10.07,36.83-20.06l.78-13.48H1237.78V61.55H1318l-22.72,12.57-9.87-5.39h-22.57c5.85,5.2,7.37,5,15.2,12H1242.8v103h20V152.58h25.07v28.75h17.55V152.58h25.7v6.73c.52,6.49-2.35,12.13-8.62,12.13l-4.54.3v12l10.81.45c17.75,1,22.82-9.33,21.78-26.8m-62.68-19.17h-25.07V123.84h25.07Zm0-28.75h-25.07V95.09h25.07Zm42.63,28.75h-25.08V123.84h25.08Zm0-28.75h-25.08V95.09h25.08Z" transform="translate(0 0)"/><path class="cls-4" d="M0,143.05v72c0,8.58,9.13,18,17.9,18h9v27c.3,2.05-.73,18.25,17.9,0l35.81-27h170.1c8.78,0,17.91-9.43,17.91-18v-72c-7.41,4.63-59.75,36-134.29,36S7.42,147.68,0,143.05" transform="translate(0 0)"/><path class="cls-3" d="M1225.25,80.71c-2.62-11-10.24-14.77-17.55-28.74h-22.57c6.27,14,15.46,17.77,17.55,28.74Z" transform="translate(0 0)"/><path class="cls-3" d="M929.35,52H854.14v162.9H874.2V68.73h35.09v93.44c0,6-4.28,9.58-10,9.58h-7.52v16.77h17.54c15.67.5,20.58-8,20.06-24Z" transform="translate(0 0)"/><path class="cls-3" d="M1089.44,99.88h-22.56c7.3,18.47,10.44,29.05,12.53,45.52H1102c-3.14-18-4.71-28.55-12.54-45.52" transform="translate(0 0)"/><path class="cls-3" d="M1046.82,52H974.11V198.1h50.15c17.23.49,23.44-7.52,22.4-23.5Zm-20.06,119.78c0,6.49-1.25,9.58-7.52,9.58H994.17v-52.7h32.59Zm0-57.5H994.17V68.73h32.59Z" transform="translate(0 0)"/><path class="cls-3" d="M1132.06,44.78H1109.5V61.55h-50.15V78.32h50.15V183.73c.51,6-3,10.18-10.34,10.18l-14.73-.6v16.77H1112c18.91-.2,20.57-8.89,20.06-26.35V78.32h20.06V61.55h-20.06Z" transform="translate(0 0)"/><path class="cls-3" d="M836.59,157.38H816.53L819,171.75s-31.08,12-40.11,12V138.21h42.62c17.23,0,20.57-8.48,20.05-24V52H761.38V205.29l62.67-16.77,2.51,9.58h20.06c-4.16-16-6.79-23.06-10-40.72M781.43,68.73h40.12V87.9H781.43Zm0,33.54h40.12v9.58c0,7-2.72,9.58-10,9.58H781.43Z" transform="translate(0 0)"/><path class="cls-5" d="M250.69,27H188V9c0-9-9.38-9-17.9-9H98.5C90,0,80.59.31,80.59,9V27H17.92C8.81,27,0,38.64,0,47.79v85.75S51.49,171,131.56,171c79.92,0,137-37.93,137-37.93V45c0-9.14-8.8-18-17.91-18M89.42,95.35a12.06,12.06,0,0,1-12.06,12.06H74.72a12.06,12.06,0,0,1-12-12.06V83.71a12.05,12.05,0,0,1,12-12h2.64a12.05,12.05,0,0,1,12.06,12Zm80.73-74.74L170,26.86H98.42V17.91c-.9,0,0-.91,0,0H170c.9,0,.17,1.79.17,2.7M205.7,95.35a12.05,12.05,0,0,1-12,12.06H191a12.06,12.06,0,0,1-12-12.06V83.71a12.05,12.05,0,0,1,12-12h2.64a12,12,0,0,1,12,12Z" transform="translate(0 0)"/><path class="cls-3" d="M1249.85,190.77q-26.65-1.5-27.42-25.46l.31-72.62h-40.11v16.77h20v59.89c.52,12.49-3.56,19.47-15,24v19.17c15.14-3,21.2-10.09,26.95-18.57,6.27,10,18.49,14.26,35.73,13.78h110.31V190.91Z" transform="translate(0 0)"/><path class="cls-3" d="M500.88,78.32V61.55l-95.42.15a95.4,95.4,0,0,1,5.17-14.53H385.56c-.53,1.5-.06,1.31-1.1,4.8a80.27,80.27,0,0,1-3.92,9.73l-57.66-.15V78.32l48.1-.15c-10.45,21-17.08,27.7-40.58,45.67V145.4c11.48-7,15.67-10.28,25.07-16.77v83.85h20.06V174.15h82.73l-.15,12.27c.51,6-3.09,9.78-9.88,9.28h-10v16.78h20.06c17.75.49,23.08-9.39,22.57-26.35V92.69l-91.67.15c4.17-6,5.33-7.68,8.46-14.67Zm-42.62,81.45H378V143h80.23Zm0-33.54H378V109.46h80.23Z" transform="translate(0 0)"/><path class="cls-3" d="M648.4,47.17H620.82v12H548.11v91c.52,24.46-.62,34-10,45.51v16.78c19.66-12.34,26-16.69,30.08-39.65V75.92H716.09V59.15H648.4Z" transform="translate(0 0)"/><path class="cls-3" d="M686,90.29l-.4-9.58H666.27L666,90.29H618.31V80.71h-20v9.58H573.18v14.38h25.08V131H666c14.56.5,20.13-4.16,19.65-20l.4-6.33h25.07V90.29Zm-20,16.78c0,6.94-.91,7.08-7.52,7.18H618.31v-9.58H666Z" transform="translate(0 0)"/><path class="cls-3" d="M701.05,152.58V138.21H583.21V155h90.26c-9.4,10-18.8,13.83-29.77,19.32-8.89-4.5-17.55-7-25.39-14.53H593.24c9.4,11,15,16.77,27.58,24.26-9.4,3.5-23.09,7.68-47.63,11.67v14.38c30.81-5,54-10.59,71.29-17.07,15.14,6.48,37.18,12,71.14,16.47V195.26a356.36,356.36,0,0,1-52.49-10.49c15.14-8.48,27.46-18.21,37.92-32.19" transform="translate(0 0)"/></g></svg>