<svg xmlns="http://www.w3.org/2000/svg" width="15.062" height="12.88" viewBox="0 0 15.062 12.88">
  <defs>
    <style>
      .cls-1 {
        fill: #007fff;
        fill-rule: evenodd;
      }
    </style>
  </defs>
  <path id="形状_1421" data-name="形状 1421" class="cls-1" d="M332.482,5719.69a1.368,1.368,0,0,0,.335.59,1.116,1.116,0,0,0,.709.31,2.09,2.09,0,0,0,.25.01h10.367a0.818,0.818,0,0,1-.085.06,2.625,2.625,0,0,0-.844.59c-0.932.94-1.863,1.88-2.8,2.81a1.122,1.122,0,0,0-.338,1.19,1.042,1.042,0,0,0,1.616.5,1.776,1.776,0,0,0,.2-0.17q2.624-2.625,5.244-5.25a1.072,1.072,0,0,0,.227-1.37,1.269,1.269,0,0,0-.22-0.27c-1.753-1.76-3.507-3.51-5.263-5.27a1.076,1.076,0,0,0-1.62.03,1.1,1.1,0,0,0,.009,1.37,1.9,1.9,0,0,0,.179.19c0.8,0.8,1.59,1.6,2.389,2.39a3.53,3.53,0,0,0,1.279,1.01,0.227,0.227,0,0,0-.01.04h-0.165q-5.133,0-10.264-.01a1.088,1.088,0,0,0-.954.42,3.057,3.057,0,0,0-.241.51v0.32Z" transform="translate(-332.469 -5713.06)"/>
</svg>
