<svg xmlns="http://www.w3.org/2000/svg" width="21" height="28" viewBox="0 0 21 28">
  <defs>
    <style>
      .cls-1 {
        fill: #494949;
        fill-rule: evenodd;
      }
    </style>
  </defs>
  <path id="形状_39_拷贝_4" data-name="形状 39 拷贝 4" class="cls-1" d="M303.079,688a2.565,2.565,0,0,1-1.486-.791A2.483,2.483,0,0,1,301,685.5q0-9.006,0-18.012c0-1.676,0-3.353,0-5.029a2.258,2.258,0,0,1,1.332-2.2,2.672,2.672,0,0,1,1.106-.238c4-.017,8-0.009,12-0.013a0.875,0.875,0,0,1,.658.273q2.81,2.814,5.625,5.624a0.9,0.9,0,0,1,.278.682q0,9.484,0,18.968a2.357,2.357,0,0,1-2.007,2.416,0.271,0.271,0,0,0-.074.033H303.079ZM315,661.168H303.565a1.222,1.222,0,0,0-1.4,1.408q0,11.425,0,22.85a1.224,1.224,0,0,0,1.4,1.411h15.881a1.218,1.218,0,0,0,1.391-1.392V667H320.51c-1.029,0-2.059.007-3.089,0a2.246,2.246,0,0,1-2.174-1.331,2.928,2.928,0,0,1-.237-1.133C314.979,663.428,315,662.317,315,661.168Zm4.871,4.661-3.692-3.692c0,0.843-.029,1.742.01,2.639a1.048,1.048,0,0,0,1.064,1.043C318.14,665.856,319.031,665.829,319.87,665.829Zm-7.189,5.65a7.9,7.9,0,0,1-.449,2.08c-0.082.288-.17,0.576-0.272,0.858a0.34,0.34,0,0,0,.077.389,15.65,15.65,0,0,0,2.284,2.188,0.6,0.6,0,0,0,.367.1c0.7-.041,1.394-0.113,2.092-0.141a2.52,2.52,0,0,1,.75.122,1.2,1.2,0,0,1,.968,1.223,1.387,1.387,0,0,1-.962,1.427,2.16,2.16,0,0,1-1.979-.392c-0.417-.275-0.821-0.573-1.239-0.848a0.453,0.453,0,0,0-.319-0.075c-1.187.306-2.37,0.63-3.555,0.942a0.613,0.613,0,0,0-.416.349,8.914,8.914,0,0,1-2.3,2.981,2.146,2.146,0,0,1-2.221.516,1.319,1.319,0,0,1-.44-2.366,7.585,7.585,0,0,1,1.391-.9c0.87-.455,1.767-0.858,2.647-1.294a0.566,0.566,0,0,0,.269-0.273q0.6-1.668,1.166-3.347a0.47,0.47,0,0,0-.081-0.315c-0.347-.616-0.747-1.207-1.047-1.845a3.2,3.2,0,0,1-.066-2.35,1.64,1.64,0,0,1,2.026-1.134,1.374,1.374,0,0,1,1.172,1.168C312.609,670.847,312.636,671.165,312.681,671.479Zm-1.641,1.991a10.392,10.392,0,0,0,.34-1.209,6.763,6.763,0,0,0,.067-1.3,0.414,0.414,0,0,0-.533-0.46,0.494,0.494,0,0,0-.5.476A2.99,2.99,0,0,0,311.04,673.47Zm0.422,2.484-0.67,2.022,2.048-.539Zm-3.2,4.439-0.053-.084q-1.132.64-2.262,1.283a0.5,0.5,0,0,0-.12.111c-0.207.226-.181,0.312,0.116,0.411a0.792,0.792,0,0,0,.7-0.092A5.8,5.8,0,0,0,308.259,680.393Zm7.657-2.321c-0.008.03-.015,0.06-0.023,0.09a3.821,3.821,0,0,0,.529.326,2.325,2.325,0,0,0,.616.157,0.225,0.225,0,0,0,.277-0.254,0.352,0.352,0,0,0-.242-0.226C316.69,678.114,316.3,678.1,315.916,678.072Z" transform="translate(-301 -660)"/>
</svg>
