<svg xmlns="http://www.w3.org/2000/svg" width="19" height="19" viewBox="0 0 19 19">
  <defs>
    <style>
      .cls-1 {
        fill: #1072e0;
        fill-rule: evenodd;
      }
    </style>
  </defs>
  <path id="形状_40_拷贝_4" data-name="形状 40 拷贝 4" class="cls-1" d="M652.821,785.6V785.31q0-5.743,0-11.489a1.325,1.325,0,0,1,.033-0.334,0.663,0.663,0,0,1,.708-0.484,0.687,0.687,0,0,1,.613.629c0,0.077,0,.155,0,0.233V785.6c0.088-.082.144-0.131,0.2-0.183q1.68-1.679,3.359-3.357a0.679,0.679,0,1,1,.967.95q-0.617.613-1.229,1.229l-3.388,3.387a0.708,0.708,0,0,1-1.166,0q-2.3-2.3-4.6-4.6a0.678,0.678,0,0,1,.26-1.177,0.693,0.693,0,0,1,.707.226q1.669,1.674,3.342,3.343C652.678,785.467,652.734,785.517,652.821,785.6Zm-7.464,5.036h16.285v-0.229q0-1.2,0-2.395A0.683,0.683,0,1,1,663,788c0,0.862,0,1.724,0,2.586A1.351,1.351,0,0,1,661.6,792q-8.1,0-16.194,0a1.355,1.355,0,0,1-1.4-1.4q0-1.3,0-2.607a0.68,0.68,0,1,1,1.356,0C645.359,788.86,645.357,789.735,645.357,790.634Z" transform="translate(-644 -773)"/>
</svg>
