<svg xmlns="http://www.w3.org/2000/svg" width="15.97" height="15.97" viewBox="0 0 15.97 15.97">
  <defs>
    <style>
      .cls-1 {
        fill: #fff;
        fill-rule: evenodd;
      }
    </style>
  </defs>
  <path id="形状_1429" data-name="形状 1429" class="cls-1" d="M1349.24,6500.79c-0.32-.08-0.66-0.14-0.97-0.25a3.543,3.543,0,0,1-2.24-3.23v-0.95a0.89,0.89,0,1,1,1.78,0c0.01,0.4-.02.8,0.03,1.2a1.725,1.725,0,0,0,1.67,1.45c1.38,0.01,2.76,0,4.13,0q2.385,0.015,4.77,0a1.741,1.741,0,0,0,1.76-1.36,3.3,3.3,0,0,0,.05-0.7c0.01-.21,0-0.42.01-0.62a0.889,0.889,0,0,1,.76-0.86,0.9,0.9,0,0,1,.97.6c0.01,0.04.03,0.09,0.04,0.13v1.38c-0.01.03-.02,0.06-0.03,0.1a3.519,3.519,0,0,1-2.58,2.98,5.8,5.8,0,0,1-.6.13h-9.55Zm3.89-6.63v-8.36a0.944,0.944,0,0,1,.28-0.75,0.827,0.827,0,0,1,.92-0.18,0.842,0.842,0,0,1,.57.75v8.58c0.07-.06.11-0.1,0.15-0.14,0.62-.62,1.25-1.26,1.88-1.88a0.881,0.881,0,0,1,1.44.25,0.891,0.891,0,0,1-.22,1.04c-0.65.66-1.31,1.31-1.97,1.97l-1.47,1.47a0.9,0.9,0,0,1-1.39,0l-3.43-3.43a0.9,0.9,0,0,1-.12-1.23,0.877,0.877,0,0,1,1.34-.06c0.63,0.62,1.25,1.24,1.87,1.87a0.5,0.5,0,0,1,.08.14A0.161,0.161,0,0,0,1353.13,6494.16Z" transform="translate(-1346.03 -6484.81)"/>
</svg>
