<svg xmlns="http://www.w3.org/2000/svg" width="20.53" height="21.25" viewBox="0 0 20.53 21.25">
  <defs>
    <style>
      .cls-1 {
        fill: #222;
        fill-rule: evenodd;
      }
    </style>
  </defs>
  <path id="形状_1266" data-name="形状 1266" class="cls-1" d="M1638,939.1a2.07,2.07,0,0,1-.87-0.635q-2.325-2.418-4.64-4.83a1.4,1.4,0,0,1-.15-0.176,8.506,8.506,0,0,1-7.43,1.171,8.306,8.306,0,0,1-4.65-3.459,8.568,8.568,0,0,1,12.64-11.3,8.316,8.316,0,0,1,3.04,5.811,8.483,8.483,0,0,1-1.97,6.269c0.1,0.1.19,0.205,0.29,0.3q2.34,2.436,4.69,4.872a1.116,1.116,0,0,1,.06,1.626,2.785,2.785,0,0,1-.59.35H1638Zm-10.59-19a6.336,6.336,0,1,0,6.33,6.334A6.349,6.349,0,0,0,1627.41,920.093Z" transform="translate(-1618.81 -917.844)"/>
</svg>
