<svg xmlns="http://www.w3.org/2000/svg" width="18.03" height="18.062" viewBox="0 0 18.03 18.062">
  <defs>
    <style>
      .cls-1 {
        fill: #7f7f7f;
        fill-rule: evenodd;
        opacity: 0.64;
      }
    </style>
  </defs>
  <path id="形状_1" data-name="形状 1" class="cls-1" d="M1301.98,752.975a2.525,2.525,0,0,1-.36-0.24q-3.045-3.041-6.09-6.087a1.515,1.515,0,0,1-.36-1.841,1.5,1.5,0,0,1,2.39-.366c0.63,0.607,1.24,1.238,1.87,1.86,1.45,1.449,2.89,2.9,4.35,4.348a3.063,3.063,0,0,0,.22.215c0.09-.087.18-0.164,0.26-0.245q3.045-3.043,6.09-6.09a1.5,1.5,0,0,1,2.33,1.891c-0.1.122-.21,0.233-0.32,0.343-1.99,1.989-3.97,3.977-5.96,5.963a3.58,3.58,0,0,1-.31.229c0.13,0.134.21,0.218,0.29,0.3q3.03,3.034,6.07,6.067a1.591,1.591,0,0,1,.53,1.418,1.493,1.493,0,0,1-2.32,1,2.208,2.208,0,0,1-.37-0.329q-3.015-3-6.01-6.007a3.516,3.516,0,0,1-.24-0.3c-0.12.118-.21,0.194-0.29,0.274q-3.045,3.043-6.08,6.09a1.531,1.531,0,0,1-1.6.472,1.5,1.5,0,0,1-.76-2.341,4.184,4.184,0,0,1,.3-0.323q3-3,6.01-6.006C1301.7,753.183,1301.8,753.121,1301.98,752.975Z" transform="translate(-1294.97 -743.969)"/>
</svg>
