<svg xmlns="http://www.w3.org/2000/svg" width="32" height="32" viewBox="0 0 32 32">
  <defs>
    <style>
      .cls-1 {
        fill: #007fff;
        fill-rule: evenodd;
      }
    </style>
  </defs>
  <path id="形状_5" data-name="形状 5" class="cls-1" d="M1515,24a16,16,0,1,0,16,16A16.047,16.047,0,0,0,1515,24Zm7.6,22-0.8.8-0.2.2-0.2.2c-1,1-4.4,2.4-10.4-3.4-5.6-5.6-4-9-3.2-10l1.4-1.4a1.571,1.571,0,0,1,2.2,0l2,2a1.568,1.568,0,0,1,0,2.2l-1.2,1-0.2.4c-0.6.6-.6,0.8,0.2,1.6l3,2.8c1.4,1.2,1.6,1.2,2.2.8l1-1.2a1.584,1.584,0,0,1,2.2-.2l2,2a1.57,1.57,0,0,1,0,2.2h0Z" transform="translate(-1499 -24)"/>
</svg>
