<svg xmlns="http://www.w3.org/2000/svg" width="21.84" height="17.594" viewBox="0 0 21.84 17.594">
  <defs>
    <style>
      .cls-1 {
        fill: #a0a0a0;
        fill-rule: evenodd;
      }
    </style>
  </defs>
  <path id="形状_1244" data-name="形状 1244" class="cls-1" d="M1420.8,294.982c-0.1.431-.18,0.868-0.3,1.29a0.787,0.787,0,0,1-.84.547,0.82,0.82,0,0,1-.76-0.689,1.405,1.405,0,0,1,.05-0.5,3.927,3.927,0,0,0-.49-3.365,3.87,3.87,0,0,0-2.93-1.815,10.725,10.725,0,0,0-1.29.026,1.837,1.837,0,0,1-.52-0.025,0.817,0.817,0,0,1,.07-1.576,5.426,5.426,0,0,1,3.06.16,5.637,5.637,0,0,1,3.91,4.85c0.01,0.055.03,0.108,0.04,0.162v0.933Zm-12.33,11.334a13.6,13.6,0,0,1-6.49-1.482,6.08,6.08,0,0,1-2.38-2.161,4.3,4.3,0,0,1-.37-3.652,9.5,9.5,0,0,1,1.83-3.249,14.538,14.538,0,0,1,4.19-3.64,7.011,7.011,0,0,1,2.51-.9,1.8,1.8,0,0,1,1.75.579,1.476,1.476,0,0,1,.34.98c-0.03.427-.11,0.85-0.17,1.274a2.273,2.273,0,0,0-.06.247,0.159,0.159,0,0,0,.19.211,2.364,2.364,0,0,0,.49-0.119,8.011,8.011,0,0,1,2.35-.623,4.97,4.97,0,0,1,1.29.062,1.565,1.565,0,0,1,1.31,1.976c-0.06.289-.16,0.569-0.24,0.854-0.09.32-.05,0.362,0.25,0.488a10.037,10.037,0,0,1,1.21.524,2.888,2.888,0,0,1,1.24,3.831,6.31,6.31,0,0,1-2,2.429,11.28,11.28,0,0,1-5.56,2.223C1409.49,306.257,1408.81,306.286,1408.47,306.316Zm-1.12-1.2c0.63-.086,1.28-0.138,1.91-0.264a7.267,7.267,0,0,0,4.08-2.2,3.142,3.142,0,0,0,.85-2.927,3.3,3.3,0,0,0-1.34-1.945,7.119,7.119,0,0,0-3.79-1.312,9.554,9.554,0,0,0-4.14.548,6.4,6.4,0,0,0-3.11,2.228,2.971,2.971,0,0,0-.3,3.219,3.879,3.879,0,0,0,1.66,1.634A8.653,8.653,0,0,0,1407.35,305.115Zm10.49-10.538a6.949,6.949,0,0,1-.15.737,0.712,0.712,0,0,1-.86.5,0.69,0.69,0,0,1-.5-0.854,1.388,1.388,0,0,0-.47-1.557,1.326,1.326,0,0,0-1.14-.261,0.686,0.686,0,0,1-.74-0.3,0.651,0.651,0,0,1,.01-0.774,0.838,0.838,0,0,1,.42-0.3,2.775,2.775,0,0,1,3.37,2.254C1417.8,294.18,1417.82,294.341,1417.84,294.577Zm-10.36,3.594a3.328,3.328,0,0,1,2.61,1.077,2.532,2.532,0,0,1,.29,2.981,3.9,3.9,0,0,1-5.45,1.357,2.616,2.616,0,0,1-.63-3.7A3.932,3.932,0,0,1,1407.48,298.171Zm-1.12,2.526a1.425,1.425,0,0,0-1.01.415,1.057,1.057,0,0,0-.27,1.2,1.012,1.012,0,0,0,1.02.548,1.39,1.39,0,0,0,1.05-.567A0.973,0.973,0,0,0,1406.36,300.7Zm1.54,0.31a0.492,0.492,0,0,0,.5-0.465,0.36,0.36,0,0,0-.39-0.351,0.5,0.5,0,0,0-.5.493A0.343,0.343,0,0,0,1407.9,301.007Z" transform="translate(-1398.97 -288.719)"/>
</svg>
