<svg xmlns="http://www.w3.org/2000/svg" width="21.87" height="19.031" viewBox="0 0 21.87 19.031">
  <defs>
    <style>
      .cls-1 {
        fill: #a0a0a0;
        fill-rule: evenodd;
      }
    </style>
  </defs>
  <path id="形状_1245" data-name="形状 1245" class="cls-1" d="M1437.14,294.32c0.09-.426.17-0.86,0.29-1.278a5.967,5.967,0,0,1,1.63-2.62,8.572,8.572,0,0,1,5.08-2.35,9.353,9.353,0,0,1,5.19.8,7.223,7.223,0,0,1,3.61,3.436c0.18,0.372.29,0.774,0.45,1.2-0.11,0-.16,0-0.22-0.01a9.066,9.066,0,0,0-6.76,1.9,6.308,6.308,0,0,0-2.26,3.412,5.164,5.164,0,0,0-.08,2.44,0.94,0.94,0,0,1,.02.167,0.271,0.271,0,0,1-.01.118c-0.57-.144-1.12-0.272-1.67-0.435a0.739,0.739,0,0,0-.56.027c-0.8.35-1.61,0.688-2.41,1.029-0.06.027-.13,0.049-0.24,0.093,0.37-.739.71-1.43,1.05-2.1-0.39-.324-0.78-0.618-1.13-0.953a6.176,6.176,0,0,1-1.92-3.563l-0.06-.373V294.32Zm5.47-1.234a1.018,1.018,0,1,0-1.03-1A1.028,1.028,0,0,0,1442.61,293.086Zm6.47-1.013a1.025,1.025,0,1,0-1.02,1.013A1.031,1.031,0,0,0,1449.08,292.073Zm7.26,12.418c0.21,0.429.42,0.84,0.63,1.25s0.4,0.808.63,1.264c-0.12-.045-0.19-0.069-0.25-0.1-1.05-.444-2.09-0.883-3.13-1.339a0.98,0.98,0,0,0-.61-0.065,7.768,7.768,0,0,1-5.71-1.035,5.229,5.229,0,0,1-2.37-2.968,4.29,4.29,0,0,1,.39-3.481,6.159,6.159,0,0,1,3.67-2.827,8.152,8.152,0,0,1,5.73.224,5.949,5.949,0,0,1,3.04,2.574,4.275,4.275,0,0,1,.09,4.278,5.449,5.449,0,0,1-1.8,2C1456.55,304.338,1456.45,304.408,1456.34,304.491Zm-5.22-5.617a1.02,1.02,0,1,0-1.02,1.009A1.023,1.023,0,0,0,1451.12,298.874Zm3.08,1.009a1.018,1.018,0,1,0-1.03-1.006A1.031,1.031,0,0,0,1454.2,299.883Z" transform="translate(-1437.13 -287.969)"/>
</svg>
